<svg width="28" height="28" viewBox="0 0 28 28" fill="none" xmlns="http://www.w3.org/2000/svg">
<path d="M19.5566 18.1921L21.1123 16.5045C21.3554 16.2409 21.7782 16.4254 21.7782 16.8051V24.4728C21.7782 25.8702 20.7332 27.004 19.445 27.004H2.33339C1.04516 27.004 0 25.8702 0 24.4728V5.9102C0 4.51275 1.04516 3.37895 2.33339 3.37895H15.6288C15.974 3.37895 16.149 3.83247 15.9059 4.10142L14.3503 5.78892C14.2774 5.86801 14.1802 5.9102 14.0732 5.9102H2.33339V24.4728H19.445V18.4874C19.445 18.3767 19.4838 18.2712 19.5566 18.1921ZM27.1693 7.55025L14.4038 21.3983L10.0093 21.9257C8.73562 22.0785 7.65157 20.9132 7.79254 19.521L8.27867 14.7538L21.0443 0.905713C22.1574 -0.301904 23.956 -0.301904 25.0645 0.905713L27.1646 3.18384C28.2777 4.39145 28.2777 6.34791 27.1693 7.55025ZM22.3664 9.17973L19.5421 6.11587L10.51 15.9192L10.1551 19.3627L13.3295 18.9778L22.3664 9.17973ZM25.5165 4.97681L23.4164 2.69869C23.2171 2.48247 22.8915 2.48247 22.697 2.69869L21.195 4.32817L24.0193 7.39205L25.5214 5.76255C25.7158 5.54106 25.7158 5.19301 25.5165 4.97681Z" fill="black"/>
</svg>
