<svg width="17" height="16" viewBox="0 0 17 16" fill="none" xmlns="http://www.w3.org/2000/svg">
<path d="M11.8734 10.7783L12.8179 9.77829C12.9655 9.62204 13.2222 9.73141 13.2222 9.95641V14.5002C13.2222 15.3283 12.5877 16.0002 11.8056 16.0002H1.41667C0.634549 16.0002 0 15.3283 0 14.5002V3.50016C0 2.67204 0.634549 2.00016 1.41667 2.00016H9.48872C9.69826 2.00016 9.80451 2.26891 9.65694 2.42829L8.7125 3.42829C8.66823 3.47516 8.6092 3.50016 8.54427 3.50016H1.41667V14.5002H11.8056V10.9533C11.8056 10.8877 11.8292 10.8252 11.8734 10.7783ZM16.4953 4.47204L8.74496 12.6783L6.07691 12.9908C5.30365 13.0814 4.64549 12.3908 4.73108 11.5658L5.02622 8.74079L12.7766 0.534537C13.4524 -0.181088 14.5444 -0.181088 15.2174 0.534537L16.4924 1.88454C17.1682 2.60016 17.1682 3.75954 16.4953 4.47204ZM13.5793 5.43766L11.8646 3.62204L6.3809 9.43141L6.16545 11.472L8.09271 11.2439L13.5793 5.43766ZM15.4918 2.94704L14.2168 1.59704C14.0958 1.46891 13.8981 1.46891 13.78 1.59704L12.8681 2.56266L14.5828 4.37829L15.4948 3.41266C15.6128 3.28141 15.6128 3.07516 15.4918 2.94704Z" fill="#219159"/>
</svg>
