<svg width="16" height="18" viewBox="0 0 16 18" fill="none" xmlns="http://www.w3.org/2000/svg">
<path d="M9.43197 14.2083H10.2132C10.3168 14.2083 10.4162 14.1672 10.4894 14.0939C10.5627 14.0207 10.6038 13.9213 10.6038 13.8177V6.78646C10.6038 6.68286 10.5627 6.58351 10.4894 6.51025C10.4162 6.43699 10.3168 6.39584 10.2132 6.39584H9.43197C9.32837 6.39584 9.22901 6.43699 9.15575 6.51025C9.0825 6.58351 9.04134 6.68286 9.04134 6.78646V13.8177C9.04134 13.9213 9.0825 14.0207 9.15575 14.0939C9.22901 14.1672 9.32837 14.2083 9.43197 14.2083ZM14.7705 3.27084H12.0879L10.9811 1.42514C10.8422 1.1937 10.6457 1.00218 10.4108 0.869262C10.1759 0.736341 9.91054 0.666543 9.64062 0.666672H6.35872C6.08891 0.666656 5.8237 0.736506 5.5889 0.869422C5.3541 1.00234 5.15772 1.19379 5.01888 1.42514L3.91146 3.27084H1.22884C1.09071 3.27084 0.958232 3.32571 0.860556 3.42339C0.762881 3.52106 0.708008 3.65354 0.708008 3.79167L0.708008 4.31251C0.708008 4.45064 0.762881 4.58312 0.860556 4.68079C0.958232 4.77847 1.09071 4.83334 1.22884 4.83334H1.74967V15.7708C1.74967 16.1852 1.91429 16.5827 2.20732 16.8757C2.50035 17.1687 2.89777 17.3333 3.31217 17.3333H12.6872C13.1016 17.3333 13.499 17.1687 13.792 16.8757C14.0851 16.5827 14.2497 16.1852 14.2497 15.7708V4.83334H14.7705C14.9086 4.83334 15.0411 4.77847 15.1388 4.68079C15.2365 4.58312 15.2913 4.45064 15.2913 4.31251V3.79167C15.2913 3.65354 15.2365 3.52106 15.1388 3.42339C15.0411 3.32571 14.9086 3.27084 14.7705 3.27084ZM6.30176 2.3239C6.31916 2.29492 6.34379 2.27096 6.37324 2.25436C6.40268 2.23776 6.43593 2.22908 6.46973 2.22917H9.52962C9.56337 2.22913 9.59655 2.23784 9.62593 2.25444C9.65531 2.27104 9.67989 2.29497 9.69726 2.3239L10.2656 3.27084H5.73372L6.30176 2.3239ZM12.6872 15.7708H3.31217V4.83334H12.6872V15.7708ZM5.78613 14.2083H6.56738C6.67098 14.2083 6.77034 14.1672 6.8436 14.0939C6.91685 14.0207 6.95801 13.9213 6.95801 13.8177V6.78646C6.95801 6.68286 6.91685 6.58351 6.8436 6.51025C6.77034 6.43699 6.67098 6.39584 6.56738 6.39584H5.78613C5.68253 6.39584 5.58318 6.43699 5.50992 6.51025C5.43666 6.58351 5.39551 6.68286 5.39551 6.78646V13.8177C5.39551 13.9213 5.43666 14.0207 5.50992 14.0939C5.58318 14.1672 5.68253 14.2083 5.78613 14.2083Z" fill="#219159"/>
</svg>
