<svg width="24" height="27" viewBox="0 0 24 27" fill="none" xmlns="http://www.w3.org/2000/svg">
<path d="M14.148 21.3124H15.3198C15.4752 21.3124 15.6243 21.2508 15.7341 21.1408C15.8441 21.031 15.9057 20.8819 15.9057 20.7265V10.1797C15.9057 10.0243 15.8441 9.87526 15.7341 9.76537C15.6243 9.65548 15.4752 9.59375 15.3198 9.59375H14.148C13.9926 9.59375 13.8435 9.65548 13.7336 9.76537C13.6238 9.87526 13.562 10.0243 13.562 10.1797V20.7265C13.562 20.8819 13.6238 21.031 13.7336 21.1408C13.8435 21.2508 13.9926 21.3124 14.148 21.3124ZM22.1558 4.90625H18.1319L16.4717 2.1377C16.2633 1.79054 15.9686 1.50326 15.6162 1.30389C15.2639 1.1045 14.8658 0.999807 14.4609 1H9.53808C9.13337 0.999976 8.73555 1.10475 8.38335 1.30413C8.03115 1.5035 7.73658 1.79068 7.52832 2.1377L5.86719 4.90625H1.84326C1.63606 4.90625 1.43735 4.98856 1.29083 5.13508C1.14432 5.28158 1.06201 5.4803 1.06201 5.6875V6.46876C1.06201 6.67595 1.14432 6.87467 1.29083 7.02118C1.43735 7.1677 1.63606 7.25 1.84326 7.25H2.6245V23.6562C2.6245 24.2778 2.87143 24.874 3.31098 25.3135C3.75053 25.753 4.34666 25.9999 4.96826 25.9999H19.0308C19.6524 25.9999 20.2485 25.753 20.688 25.3135C21.1277 24.874 21.3746 24.2778 21.3746 23.6562V7.25H22.1558C22.3629 7.25 22.5617 7.1677 22.7082 7.02118C22.8548 6.87467 22.937 6.67595 22.937 6.46876V5.6875C22.937 5.4803 22.8548 5.28158 22.7082 5.13508C22.5617 4.98856 22.3629 4.90625 22.1558 4.90625ZM9.45264 3.48584C9.47874 3.44237 9.51569 3.40643 9.55986 3.38153C9.60402 3.35663 9.6539 3.34361 9.7046 3.34375H14.2944C14.3451 3.34369 14.3948 3.35675 14.4389 3.38165C14.483 3.40655 14.5198 3.44245 14.5459 3.48584L15.3984 4.90625H8.60058L9.45264 3.48584ZM19.0308 23.6562H4.96826V7.25H19.0308V23.6562ZM8.6792 21.3124H9.85107C10.0065 21.3124 10.1555 21.2508 10.2654 21.1408C10.3753 21.031 10.437 20.8819 10.437 20.7265V10.1797C10.437 10.0243 10.3753 9.87526 10.2654 9.76537C10.1555 9.65548 10.0065 9.59375 9.85107 9.59375H8.6792C8.5238 9.59375 8.37477 9.65548 8.26488 9.76537C8.15499 9.87526 8.09327 10.0243 8.09327 10.1797V20.7265C8.09327 20.8819 8.15499 21.031 8.26488 21.1408C8.37477 21.2508 8.5238 21.3124 8.6792 21.3124Z" fill="black"/>
</svg>
